<svg xmlns="http://www.w3.org/2000/svg" viewBox="0 0 340 232"><rect width="340" height="232" rx="6" fill="#ffffff"/><rect x="24" y="22" width="160" height="10" rx="3" fill="#1b2432"/><rect x="24" y="38" width="112" height="10" rx="3" fill="#1b2432"/><rect x="24" y="60" width="150" height="6" rx="3" fill="#aab4c2"/><line x1="24" y1="78" x2="316" y2="78" stroke="#e4e8ee" stroke-width="1"/><rect x="24" y="92" width="75" height="5" rx="2.5" fill="#ccd3dd"/><rect x="24" y="105" width="117" height="5" rx="2.5" fill="#ccd3dd"/><rect x="24" y="118" width="70" height="5" rx="2.5" fill="#ccd3dd"/><rect x="24" y="131" width="111" height="5" rx="2.5" fill="#ccd3dd"/><rect x="24" y="144" width="100" height="5" rx="2.5" fill="#ccd3dd"/><rect x="24" y="157" width="110" height="5" rx="2.5" fill="#ccd3dd"/><rect x="24" y="170" width="79" height="5" rx="2.5" fill="#ccd3dd"/><rect x="184" y="92" width="132" height="98" rx="4" fill="#f2f5f9" stroke="#dbe1ea"/><rect x="194" y="131" width="12" height="51" rx="2" fill="#7fa6ff"/><rect x="214" y="104" width="12" height="78" rx="2" fill="#3d74ff"/><rect x="234" y="111" width="12" height="71" rx="2" fill="#7fa6ff"/><rect x="254" y="163" width="12" height="19" rx="2" fill="#3d74ff"/><rect x="274" y="113" width="12" height="69" rx="2" fill="#7fa6ff"/><rect x="294" y="100" width="12" height="82" rx="2" fill="#3d74ff"/><rect x="24" y="188" width="292" height="5" rx="2.5" fill="#ccd3dd"/><rect x="24" y="200" width="204" height="5" rx="2.5" fill="#ccd3dd"/></svg>
