<svg xmlns="http://www.w3.org/2000/svg" viewBox="0 0 340 232"><rect width="340" height="232" rx="6" fill="#ffffff"/><rect x="24" y="22" width="176" height="10" rx="3" fill="#1b2432"/><rect x="24" y="38" width="164" height="10" rx="3" fill="#1b2432"/><rect x="24" y="60" width="150" height="6" rx="3" fill="#aab4c2"/><line x1="24" y1="78" x2="316" y2="78" stroke="#e4e8ee" stroke-width="1"/><rect x="24" y="92" width="86" height="5" rx="2.5" fill="#ccd3dd"/><rect x="24" y="105" width="101" height="5" rx="2.5" fill="#ccd3dd"/><rect x="24" y="118" width="79" height="5" rx="2.5" fill="#ccd3dd"/><rect x="24" y="131" width="117" height="5" rx="2.5" fill="#ccd3dd"/><rect x="24" y="144" width="89" height="5" rx="2.5" fill="#ccd3dd"/><rect x="24" y="157" width="86" height="5" rx="2.5" fill="#ccd3dd"/><rect x="24" y="170" width="92" height="5" rx="2.5" fill="#ccd3dd"/><rect x="184" y="92" width="132" height="98" rx="4" fill="#f2f5f9" stroke="#dbe1ea"/><path d="M192 176 L211 165 L230 151 L249 131 L268 146 L287 150 L306 110" fill="none" stroke="#3d74ff" stroke-width="2.5"/><path d="M192 176 L211 165 L230 151 L249 131 L268 146 L287 150 L306 110 L308 182 L192 182 Z" fill="#3d74ff" opacity=".12"/><rect x="24" y="188" width="292" height="5" rx="2.5" fill="#ccd3dd"/><rect x="24" y="200" width="204" height="5" rx="2.5" fill="#ccd3dd"/></svg>
